<svg id="logo" xmlns="http://www.w3.org/2000/svg" viewBox="0 0 54.51 58.07"><path d="M28.21,5.82" transform="translate(0.04 0.28)"/><polygon points="22.37 0.25 22.37 0.23 22.36 0.25 22.37 0.25"/><polygon points="21.91 33.29 10.87 22.26 22.2 10.78 22.26 7.34 22.26 0.35 0 22.53 21.91 43.66 21.91 33.29"/><polygon points="27.74 30.23 27.73 30.22 27.73 30.24 27.74 30.23"/><polygon points="48.41 51.95 34.29 51.91 34.19 36.9 32.09 34.73 27.73 30.37 27.68 58.07 54.51 58.07 48.41 51.95"/><polygon points="27.74 0.01 27.73 0 27.73 0.02 27.74 0.01"/><polygon points="48.41 21.73 34.29 21.68 34.19 6.68 32.09 4.5 27.73 0.14 27.68 27.85 54.51 27.85 48.41 21.73"/><polygon points="27.74 0.24 27.73 0.23 27.73 0.25 27.74 0.24"/></svg>